<svg width="32" height="24" viewBox="0 0 32 24" fill="none" xmlns="http://www.w3.org/2000/svg">
    <path d="M1 2.718C1 1.76917 1.76917 1 2.718 1H28.9125C29.8613 1 30.6305 1.76918 30.6305 2.718V21.282C30.6305 22.2308 29.8613 23 28.9125 23H2.717C1.76873 23 1 22.2313 1 21.283V2.718Z" fill="white" fill-opacity="0.219608" stroke="white" stroke-linecap="round" stroke-linejoin="round"/>
    <line x1="3.80908" y1="22.5" x2="3.80908" y2="1.5" stroke="white" stroke-linecap="round" stroke-linejoin="round"/>
    <path d="M7.60962 5.91309C7.60962 5.08466 8.28119 4.41309 9.10962 4.41309H14.2436C15.072 4.41309 15.7436 5.08466 15.7436 5.91309V8.8083C15.7436 9.63673 15.072 10.3083 14.2436 10.3083H9.10962C8.28119 10.3083 7.60962 9.63673 7.60962 8.80831V5.91309Z" stroke="white" stroke-linecap="round"/>
    <path d="M18.5703 5.91309C18.5703 5.08466 19.2419 4.41309 20.0703 4.41309H25.2043C26.0327 4.41309 26.7042 5.08466 26.7042 5.91309V8.8083C26.7042 9.63673 26.0327 10.3083 25.2042 10.3083H20.0703C19.2419 10.3083 18.5703 9.63673 18.5703 8.80831V5.91309Z" stroke="white" stroke-linecap="round"/>
    <path d="M7.60962 14.7783C7.60962 13.9499 8.28119 13.2783 9.10962 13.2783H14.2436C15.072 13.2783 15.7436 13.9499 15.7436 14.7783V17.6735C15.7436 18.502 15.072 19.1735 14.2436 19.1735H9.10962C8.28119 19.1735 7.60962 18.502 7.60962 17.6735V14.7783Z" stroke="white" stroke-linecap="round"/>
    <path d="M18.5703 14.7783C18.5703 13.9499 19.2419 13.2783 20.0703 13.2783H25.2043C26.0327 13.2783 26.7042 13.9499 26.7042 14.7783V17.6735C26.7042 18.502 26.0327 19.1735 25.2042 19.1735H20.0703C19.2419 19.1735 18.5703 18.502 18.5703 17.6735V14.7783Z" stroke="white" stroke-linecap="round"/>
    </svg>
    