<svg width="40" height="24" viewBox="0 0 40 24" fill="none" xmlns="http://www.w3.org/2000/svg">
    <path d="M34.1388 4.37207H6.23631C5.91137 4.37207 5.61015 4.43396 5.33782 4.55465C5.06446 4.67535 4.81586 4.85587 4.5982 5.09519C4.3826 5.33244 4.24128 5.59343 4.15669 5.87298C4.06901 6.16182 4.03394 6.48056 4.03394 6.82098L4.38467 21.2204C4.38467 21.7661 4.63327 22.2458 5.01598 22.5934C5.42757 22.9689 5.99389 23.1959 6.58497 23.1959H16.1537C16.5776 23.1959 16.9717 23.0876 17.3038 22.8833C17.6401 22.6811 17.9187 22.3851 18.1146 22.0106L18.1745 21.8971C18.3498 21.5608 18.6036 21.2916 18.9069 21.1101C19.2112 20.9244 19.564 20.8253 19.9436 20.8253H20.4501C20.8307 20.8253 21.1835 20.9244 21.4868 21.1101C21.7911 21.2916 22.0438 21.5608 22.2202 21.8971L22.2801 22.0106C22.474 22.3851 22.7535 22.6811 23.0898 22.8833C23.4251 23.0876 23.816 23.1959 24.24 23.1959H33.9253C34.4802 23.1917 35.0259 22.9906 35.4344 22.6502C35.8275 22.3232 36.0884 21.8682 36.0884 21.3401L36.3298 6.9231C36.3278 6.5734 36.302 6.23815 36.2225 5.93178C36.1472 5.64294 36.0193 5.37268 35.8058 5.1282C35.5881 4.87959 35.3364 4.68979 35.0589 4.56394C34.7815 4.43809 34.473 4.37207 34.1388 4.37207Z" fill="white" fill-opacity="0.219608" stroke="white" stroke-linecap="round" stroke-linejoin="round"/>
    <path d="M23.166 4.37244V1.60994C23.166 1.49647 23.1185 1.39125 23.0432 1.31801C22.9689 1.24168 22.8647 1.19629 22.7533 1.19629H17.6121C17.4976 1.19629 17.3934 1.24168 17.3201 1.31801C17.2469 1.39125 17.1995 1.49647 17.1995 1.60994V4.37244" fill="white" fill-opacity="0.219608"/>
    <path d="M23.166 4.37244V1.60994C23.166 1.49647 23.1185 1.39125 23.0432 1.31801C22.9689 1.24168 22.8647 1.19629 22.7533 1.19629H17.6121C17.4976 1.19629 17.3934 1.24168 17.3201 1.31801C17.2469 1.39125 17.1995 1.49647 17.1995 1.60994V4.37244" stroke="white" stroke-linecap="round" stroke-linejoin="round"/>
    <path d="M36.3257 7.1748H38.9551C39.0685 7.1748 39.1727 7.22123 39.247 7.29756C39.3223 7.37184 39.3677 7.47602 39.3677 7.58743V13.6272C39.3677 13.7417 39.3223 13.8448 39.2481 13.9191C39.1707 13.9923 39.0685 14.0398 38.9551 14.0398H36.2112" fill="white" fill-opacity="0.219608"/>
    <path d="M36.3257 7.1748H38.9551C39.0685 7.1748 39.1727 7.22123 39.247 7.29756C39.3223 7.37184 39.3677 7.47602 39.3677 7.58743V13.6272C39.3677 13.7417 39.3223 13.8448 39.2481 13.9191C39.1707 13.9923 39.0685 14.0398 38.9551 14.0398H36.2112" stroke="white" stroke-linecap="round" stroke-linejoin="round"/>
    <path d="M4.04308 7.1748H1.41365C1.30121 7.1748 1.19806 7.22123 1.12379 7.29756C1.04848 7.37184 1 7.47602 1 7.58743V13.6272C1 13.7417 1.04848 13.8448 1.12172 13.9191C1.19806 13.9923 1.30121 14.0398 1.41365 14.0398H4.2102" fill="white" fill-opacity="0.219608"/>
    <path d="M4.04308 7.1748H1.41365C1.30121 7.1748 1.19806 7.22123 1.12379 7.29756C1.04848 7.37184 1 7.47602 1 7.58743V13.6272C1 13.7417 1.04848 13.8448 1.12172 13.9191C1.19806 13.9923 1.30121 14.0398 1.41365 14.0398H4.2102" stroke="white" stroke-linecap="round" stroke-linejoin="round"/>
    <path d="M26.6881 9.18032C26.6881 9.44453 26.6075 9.67136 26.4462 9.86078C26.285 10.0502 26.0518 10.1877 25.7468 10.2731V10.2906C26.4579 10.38 26.8134 10.7161 26.8134 11.2989C26.8134 11.6953 26.6565 12.0071 26.3428 12.2344C26.029 12.4617 25.5933 12.5754 25.0357 12.5754C24.8065 12.5754 24.5942 12.5589 24.399 12.5258C24.2037 12.4928 23.9924 12.4326 23.7651 12.3451V11.3893C23.9516 11.4845 24.1416 11.5549 24.3349 11.6006C24.5282 11.6462 24.7064 11.669 24.8696 11.669C25.1222 11.669 25.3063 11.6336 25.4219 11.5627C25.5375 11.4918 25.5953 11.3805 25.5953 11.229C25.5953 11.1124 25.5651 11.0226 25.5049 10.9594C25.4447 10.8963 25.3475 10.8487 25.2135 10.8166C25.0794 10.7846 24.9046 10.7686 24.6889 10.7686H24.4267V9.90304H24.6948C25.2796 9.90304 25.5719 9.75344 25.5719 9.45425C25.5719 9.34157 25.5287 9.25803 25.4423 9.20363C25.3558 9.14923 25.2397 9.12203 25.094 9.12203C24.822 9.12203 24.5403 9.21334 24.2489 9.39597L23.771 8.62662C23.9963 8.47119 24.227 8.36045 24.4631 8.2944C24.6991 8.22834 24.9697 8.19531 25.2747 8.19531C25.7157 8.19531 26.0615 8.28274 26.3122 8.45759C26.5628 8.63244 26.6881 8.87335 26.6881 9.18032ZM31.1352 10.2965C31.1352 11.0075 30.9394 11.5554 30.548 11.9401C30.1565 12.3247 29.6062 12.5171 28.8971 12.5171H27.5186V8.25651H28.9932C29.6771 8.25651 30.205 8.43136 30.5771 8.78107C30.9491 9.13077 31.1352 9.6359 31.1352 10.2965ZM29.9403 10.3373C29.9403 9.94675 29.8631 9.65727 29.7087 9.46882C29.5542 9.28037 29.3196 9.18614 29.0049 9.18614H28.6697V11.5729H28.9262C29.2759 11.5729 29.5323 11.4714 29.6955 11.2683C29.8587 11.0653 29.9403 10.755 29.9403 10.3373Z" fill="white"/>
    </svg>
    