<svg width="1229" height="700" viewBox="0 0 1229 700" fill="none" xmlns="http://www.w3.org/2000/svg">
    <line x1="783.477" y1="154.312" x2="1054.48" y2="309.312" stroke="#707070" />
    <line x1="1002.4" y1="194.276" x2="1228.4" y2="276.276" stroke="#707070" />
    <line x1="800.32" y1="85.2544" x2="1114.32" y2="143.254" stroke="#707070" />
    <line x1="742.614" y1="208.426" x2="944.614" y2="451.426" stroke="#707070" />
    <line x1="933.557" y1="317.369" x2="1116.56" y2="476.369" stroke="#707070" />
    <line x1="680.697" y1="238.57" x2="794.697" y2="541.57" stroke="#707070" />
    <line x1="685.721" y1="462.655" x2="729.721" y2="699.655" stroke="#707070" />
    <line x1="819.66" y1="407.493" x2="944.66" y2="620.493" stroke="#707070" />
    <line x1="614.729" y1="249.746" x2="614.729" y2="568.746" stroke="#707070" />
    <line x1="445.224" y1="153.318" x2="174.964" y2="308.923" stroke="#707070" />
    <line x1="226.752" y1="194.303" x2="0.169968" y2="276.2" stroke="#707070" />
    <line x1="428.685" y1="85.1286" x2="114.746" y2="142.457" stroke="#707070" />
    <line x1="486.308" y1="207.802" x2="284.295" y2="450.764" stroke="#707070" />
    <line x1="295.157" y1="317.057" x2="112.253" y2="475.391" stroke="#707070" />
    <line x1="549.179" y1="237.689" x2="434.523" y2="540.708" stroke="#707070" />
    <line x1="543.743" y1="461.454" x2="500.065" y2="698.956" stroke="#707070" />
    <line x1="409.917" y1="407.02" x2="284.341" y2="619.952" stroke="#707070" />
    <path
        d="M194.729 431.746C194.729 450.531 179.724 465.746 161.229 465.746C142.734 465.746 127.729 450.531 127.729 431.746C127.729 412.962 142.734 397.746 161.229 397.746C179.724 397.746 194.729 412.962 194.729 431.746Z"
        fill="black" stroke="#707070" />
    <circle cx="946.229" cy="111.746" r="33.5" fill="black" stroke="#707070" />
    <circle cx="728.229" cy="368.246" r="33.5" fill="black" stroke="#707070" />
    <circle cx="614.729" cy="42.2539" r="41" fill="black" stroke="#707070" />
    <line x1="676.479" y1="71.3206" x2="775.479" y2="128.321" stroke="#707070" />
    <line x1="756.399" y1="86.2837" x2="839.399" y2="116.284" stroke="#707070" />
    <line x1="682.319" y1="46.262" x2="797.319" y2="67.262" stroke="#707070" />
    <line x1="661.614" y1="91.4342" x2="735.614" y2="180.434" stroke="#707070" />
    <line x1="731.556" y1="131.376" x2="798.556" y2="189.376" stroke="#707070" />
    <line x1="638.697" y1="102.577" x2="680.697" y2="213.577" stroke="#707070" />
    <line x1="640.721" y1="184.663" x2="656.721" y2="271.663" stroke="#707070" />
    <line x1="689.66" y1="164.5" x2="735.66" y2="242.5" stroke="#707070" />
    <line x1="614.729" y1="106.754" x2="614.729" y2="223.754" stroke="#707070" />
    <line x1="765.729" y1="32.7539" x2="854.729" y2="32.7539" stroke="#707070" />
    <line x1="552.479" y1="71.6872" x2="453.479" y2="128.687" stroke="#707070" />
    <line x1="472.399" y1="86.7241" x2="389.399" y2="116.724" stroke="#707070" />
    <line x1="546.319" y1="46.7458" x2="431.319" y2="67.7458" stroke="#707070" />
    <line x1="567.614" y1="91.5736" x2="493.614" y2="180.574" stroke="#707070" />
    <line x1="497.556" y1="131.632" x2="430.556" y2="189.632" stroke="#707070" />
    <line x1="590.697" y1="102.431" x2="548.697" y2="213.431" stroke="#707070" />
    <line x1="588.721" y1="184.344" x2="572.721" y2="271.344" stroke="#707070" />
    <line x1="539.66" y1="164.508" x2="493.66" y2="242.508" stroke="#707070" />
    <line x1="462.729" y1="33.2539" x2="373.729" y2="33.2539" stroke="#707070" />
    <circle cx="791.729" cy="185.254" r="12" fill="black" stroke="#707070" />
    <circle cx="650.729" cy="136.254" r="12" fill="black" stroke="#707070" />
    <circle cx="499.729" cy="173.254" r="12" fill="black" stroke="#707070" />
    <circle cx="493.729" cy="55.2539" r="12" fill="black" stroke="#707070" />
    <circle cx="735.729" cy="56.2539" r="12" fill="black" stroke="#707070" />
</svg>
    