<svg width="53" height="100" viewBox="0 0 53 100" fill="none" xmlns="http://www.w3.org/2000/svg">
    <path d="M0.250923 96.1126L0 96.0008L42.5442 0.512695L42.7951 0.624497L0.250923 96.1126Z"
        fill="white" stroke="white" stroke-width="0.5" />
    <path d="M4.03779 97.5889L3.78687 97.4771L46.2604 2.14722L46.5114 2.25901L4.03779 97.5889Z"
        fill="white" stroke="white" stroke-width="0.5" />
    <path d="M10.1679 97.3057L5.12283 95.0578L29.6819 39.9365L34.727 42.1843L10.1679 97.3057Z"
        fill="white" />
    <path d="M25.6616 38.692L20.6119 36.4421L36.1595 1.54639L41.2093 3.7963L25.6616 38.692Z"
        fill="white" />
    <path
        d="M21.3446 36.6476C19.0032 35.6044 16.9361 34.1338 15.2007 32.2766C14.3666 31.384 13.6151 30.4043 12.967 29.3648C12.325 28.3352 11.7789 27.2379 11.3437 26.1033C10.9086 24.9688 10.5808 23.7878 10.3696 22.593C10.1563 21.3866 10.0599 20.1557 10.0831 18.9342C10.1314 16.3929 10.6848 13.9171 11.728 11.5757C12.7712 9.23429 14.2418 7.16717 16.099 5.43178C16.9916 4.59771 17.9712 3.84618 19.0108 3.19806C20.0404 2.55611 21.1377 2.00998 22.2722 1.57483C23.4067 1.13967 24.5878 0.811917 25.7826 0.60065C26.9889 0.387351 28.2199 0.290962 29.4413 0.314172C31.9827 0.362453 34.4584 0.915872 36.7999 1.95906L36.6881 2.20998C34.3804 1.18183 31.9405 0.636396 29.4361 0.588818C28.2324 0.565948 27.0193 0.660939 25.8304 0.871151C24.6528 1.07937 23.4888 1.40241 22.3706 1.83131C21.2524 2.2602 20.1709 2.79847 19.1561 3.43116C18.1316 4.0699 17.1661 4.81053 16.2865 5.63249C14.4563 7.34265 13.007 9.37984 11.9789 11.6875C10.9508 13.9951 10.4053 16.4351 10.3577 18.9394C10.3349 20.1431 10.4299 21.3563 10.6401 22.5451C10.8483 23.7227 11.1713 24.8868 11.6002 26.005C12.0291 27.1232 12.5674 28.2047 13.2001 29.2195C13.8388 30.2439 14.5795 31.2094 15.4014 32.0891C17.1116 33.9192 19.1488 35.3685 21.4564 36.3967L21.3446 36.6476Z"
        fill="white" stroke="white" stroke-width="0.5" />
    <path
        d="M22.1756 99.6892C21.9876 99.6892 21.7999 99.6874 21.6121 99.6839C19.6441 99.6465 17.6714 99.4123 15.749 98.9878C13.7765 98.5524 11.8324 97.911 9.97081 97.0815L10.0826 96.8306C11.9274 97.6526 13.8538 98.2881 15.8082 98.7196C17.713 99.1402 19.6674 99.3722 21.6174 99.4092C23.5319 99.4456 25.4615 99.2945 27.3525 98.9601C29.2255 98.629 31.077 98.1151 32.8555 97.433C34.634 96.7508 36.3542 95.8947 37.9683 94.8883C39.5979 93.8724 41.1335 92.6943 42.5327 91.387C43.9577 90.0554 45.2557 88.5759 46.3907 86.9895C47.5553 85.3616 48.5625 83.6009 49.3845 81.7562C50.2064 79.9114 50.8419 77.985 51.2735 76.0305C51.694 74.1258 51.926 72.1713 51.9631 70.2214C51.9994 68.3068 51.8483 66.3772 51.514 64.4862C51.1828 62.6132 50.669 60.7617 49.9868 58.9832C49.3046 57.2046 48.4485 55.4844 47.4421 53.8703C46.4261 52.2408 45.2481 50.7051 43.9407 49.306C42.6091 47.881 41.1296 46.583 39.5432 45.448C37.9153 44.2834 36.1545 43.2762 34.3097 42.4543L34.4215 42.2034C36.2832 43.0328 38.0601 44.0493 39.703 45.2246C41.3042 46.3701 42.7975 47.6801 44.1414 49.1184C45.4609 50.5305 46.6499 52.0804 47.6752 53.725C48.6908 55.3539 49.5548 57.0899 50.2433 58.8848C50.9317 60.6796 51.4503 62.5482 51.7845 64.4384C52.1219 66.3469 52.2744 68.2943 52.2377 70.2266C52.2003 72.1947 51.9662 74.1673 51.5417 76.0898C51.1062 78.0623 50.4648 80.0063 49.6354 81.868C48.8059 83.7296 47.7894 85.5065 46.6141 87.1493C45.4686 88.7505 44.1585 90.2437 42.7202 91.5877C41.3081 92.9072 39.7582 94.0961 38.1137 95.1214C36.4847 96.137 34.7487 97.001 32.9539 97.6895C31.159 98.3779 29.2905 98.8964 27.4003 99.2307C25.6773 99.5353 23.9223 99.6892 22.1756 99.6892Z"
        fill="white" stroke="white" stroke-width="0.5" />
</svg>
    